<?xml version="1.0" encoding="utf-8"?>
<!-- Generator: Adobe Illustrator 23.0.1, SVG Export Plug-In . SVG Version: 6.00 Build 0)  -->
<svg version="1.1" xmlns="http://www.w3.org/2000/svg" xmlns:xlink="http://www.w3.org/1999/xlink" x="0px" y="0px"
	 viewBox="0 0 1920 1080" style="enable-background:new 0 0 1920 1080;" xml:space="preserve">
<style type="text/css">
	.st0{fill:#CCCCCC;}
	.st1{font-family:'Impact';}
	.st2{font-size:70px;}
	.st3{font-family:'Didot-Bold';}
	.st4{font-size:57px;}
	.st5{font-family:'Times-Roman';}
	.st6{font-size:60px;}
	.st7{font-family:'AmericanTypewriter';}
	.st8{font-family:'Alegreya-Regular';}
	.st9{font-size:85px;}
	.st10{font-family:'BebasKai';}
	.st11{font-size:75px;}
	.st12{font-family:'EngraversOldEnglishNormal';}
	.st13{font-size:80px;}
	.st14{font-family:'AlgerianBeckerBasic';}
	.st15{font-family:'LeagueGothic-Regular';}
	.st16{font-family:'Woodcut';}
	.st17{font-size:56px;}
	.st18{font-family:'Palatino-Roman';}
	.st19{font-family:'PlayfairDisplay-Regular';}
	.st20{font-family:'HoeflerText-Regular';}
	.st21{font-family:'GoboldBold';}
	.st22{font-family:'Gracey's-Curse';}
	.st23{font-size:52px;}
	.st24{font-family:'GermaniaOne-Regular';}
	.st25{font-family:'FrancoisOne-Regular';}
	.st26{font-size:74px;}
	.st27{font-family:'Dark&Black';}
	.st28{font-family:'Dr.Charmed';}
	.st29{font-family:'Cochin';}
	.st30{font-size:45.6407px;}
	.st31{fill:none;}
	.st32{font-family:'DINCondensed-Bold';}
	.st33{font-size:51.8278px;}
	.st34{font-family:'AbrilFatface-Regular';}
	.st35{font-size:63px;}
	.st36{font-size:68px;}
	.st37{font-size:79.7617px;}
	.st38{font-size:59.913px;}
	.st39{font-size:105px;}
	.st40{font-size:94.1276px;}
	.st41{font-family:'Oswald-Regular';}
	.st42{font-size:65px;}
	.st43{font-size:107.1034px;}
	.st44{font-size:47px;}
	.st45{font-size:62px;}
	.st46{font-size:148.5515px;}
	.st47{opacity:0.85;}
	.st48{fill:#FFFFFF;}
</style>
<g id="Layer_1">
	<rect class="st0" width="1920" height="1080"/>
	<text transform="matrix(1 0 0 1 87.1807 334.9248)" class="st1 st2">IT’S DELICATE</text>
	<text transform="matrix(1 0 0 1 563.7465 319.3809)" class="st3 st4">END GAME</text>
	<text transform="matrix(0 -1 1 0 61.2158 937.7788)" class="st5 st6">LOVE MADE ME CRAZY</text>
	<text transform="matrix(0 -1 1 0 1811.4672 918.8438)" class="st7 st2">I CAN BE A PHANTOM</text>
	<text transform="matrix(1 0 0 1 1248 986.6245)" class="st8 st9">BIG REPUTATION</text>
	<text transform="matrix(1 0 0 1 83.1807 927.0556)" class="st10 st11">MY REPUTATION’S NEVER BEEN WORSE!</text>
	<text transform="matrix(1 0 0 1 17.1807 1000.1152)" class="st12 st13">LOOK WHAT YOU MADE ME DO</text>
	<text transform="matrix(1 0 0 1 18.1807 179.915)" class="st14 st13">your a team</text>
	<text transform="matrix(0 -1 1 0 1027.8418 856.1875)" class="st15 st9">I KNEW HE WAS A KILLER</text>
	<text transform="matrix(1 0 0 1 27.1807 1061.0591)" class="st16 st17">THEY&apos;RE BURNING ALL THE WITCHES</text>
	<text transform="matrix(1 0 0 1 49.1807 256.3052)" class="st18 st2">SO IT GOES...</text>
	<text transform="matrix(1 0 0 1 1231.1807 79.3555)" class="st19 st11">ALL EYES ON ME</text>
	<text transform="matrix(0 -1 1 0 1208.188 1000.1875)" class="st20 st2">YOU’RE SO GORGEOUS</text>
	<text transform="matrix(1 0 0 1 18.1807 92.0967)" class="st21 st2">NOTHING GOOD STARTS IN A GETAWAY CAR</text>
	<text transform="matrix(0 -1 1 0 553.8979 529.0967)" class="st1 st11">GO! GO! GO!</text>
	<text transform="matrix(1 0 0 1 1222.1807 429.6943)" class="st22 st23">THE WORST OF CRIMES!</text>
	<text transform="matrix(1 0 0 1 537.1807 180.0557)" class="st24 st2">X MARKS THE SPOT</text>
	<text transform="matrix(1 0 0 1 596.1807 256.0557)" class="st25 st26">SALUTE TO ME</text>
	<text transform="matrix(0 1 -1 0 1839.6797 32.8681)" class="st27 st2">YOUR LOVE IS A SECRET</text>
	<text transform="matrix(0 1 -1 0 1103.2383 117.8681)" class="st28 st2">HOW WERE YOU TO KNOW?</text>
	<text transform="matrix(0 -1 1 0 1084.042 927.0195)" class="st29 st30">DANCING WITH OUR HANDS TIED</text>
	<rect x="1186.18" y="108.56" class="st31" width="624.82" height="71.44"/>
	<text transform="matrix(1 0 0 1 1186.1807 154.6299)" class="st28 st2">A GOLDEN TATTOO</text>
	<text transform="matrix(1 0 0 1 1231.1807 351.9248)" class="st32 st2">OUR SECRET MOMENTS</text>
	<text transform="matrix(1 0 0 1 1222.1807 220.6211)"><tspan x="0" y="0" class="st8 st33">THIS IS WHY WE CAN’T</tspan><tspan x="0" y="62.19" class="st8 st33">HAVE NICE THINGS</tspan></text>
	<text transform="matrix(1 0 0 1 87.1807 855.8057)" class="st34 st35">DIVE BAR ON THE EAST SIDE</text>
	<text transform="matrix(0 1 -1 0 900.2363 267.5967)" class="st27 st36">READY FOR IT?</text>
	<text transform="matrix(0 0.7266 -1 0 1682.249 456.0811)" class="st3 st13">BRIDGES BURN</text>
	<text transform="matrix(0 -1 1 0 882.2776 784.9033)" class="st24 st2">NEW YEAR’S DAY</text>
	<text transform="matrix(0.9797 0 0 1 1266.1807 519.5786)" class="st18 st37">BUT I STAY</text>
	<text transform="matrix(0 0.7678 -1 0 755.8867 332.2671)"><tspan x="0" y="0" class="st16 st38">I KEEP HIM</tspan><tspan x="0" y="71.9" class="st16 st38">FOREVER</tspan></text>
	<text transform="matrix(0 -1 1 0 647.5752 724.2568)" class="st22 st2">LIGHT ME UP</text>
	<text transform="matrix(1 0 0 1 86.1807 786.6299)" class="st28 st23">NO FURTHER EXPLANATION</text>
	<text transform="matrix(1 0 0 1 77.5752 724.4063)" class="st15 st39">JUST REPUTATION</text>
	<text transform="matrix(0.4887 0 0 1 83.0742 627.6436)" class="st7 st40">CRIMSON RED PAINT</text>
	<text transform="matrix(1 0 0 1 83.1807 536.6299)" class="st28 st2">BIG ENEMIES</text>
	<text transform="matrix(0 1 -1 0 1222.2461 519.7893)" class="st41 st42">DON’T BLAME ME</text>
	<text transform="matrix(1 0 0 1 1293.1807 642.6025)"><tspan x="0" y="0" class="st21 st43">CAUSE</tspan><tspan x="0" y="128.52" class="st21 st43">SHE’S</tspan><tspan x="0" y="257.05" class="st21 st43">DEAD!</tspan></text>
	<text transform="matrix(0 -1 1 0 1665.553 907.9248)" class="st3 st44">LITTLE GAMES</text>
	<text transform="matrix(0 1 -1 0 1577.6973 536.8379)" class="st12 st45">BAD DREAMS</text>
	<text transform="matrix(0.7113 0 0 1 86.1802 467.0684)" class="st34 st46">KARMA</text>
</g>
<g id="Layer_2">
	<g class="st47">
		<rect class="st48" width="1920" height="1080"/>
	</g>
</g>
</svg>
